<?xml version="1.0" encoding="UTF-8" standalone="no"?>
<!DOCTYPE svg PUBLIC "-//W3C//DTD SVG 1.1//EN"
 "http://www.w3.org/Graphics/SVG/1.1/DTD/svg11.dtd">
<!-- Generated by graphviz version 2.43.0 (0)
 -->
<!-- Title: G Pages: 1 -->
<svg width="1010pt" height="782pt"
 viewBox="0.00 0.00 1010.00 782.00" xmlns="http://www.w3.org/2000/svg" xmlns:xlink="http://www.w3.org/1999/xlink">
<g id="graph0" class="graph" transform="scale(1 1) rotate(0) translate(4 778)">
<title>G</title>
<polygon fill="white" stroke="transparent" points="-4,4 -4,-778 1006,-778 1006,4 -4,4"/>
<g id="clust1" class="cluster">
<title>cluster_root</title>
<g id="a_clust1"><a xlink:title="eventq_index=0&#10;full_system=false&#10;sim_quantum=0&#10;time_sync_enable=false&#10;time_sync_period=100000000000&#10;time_sync_spin_threshold=100000000">
<path fill="#bab6ae" stroke="#000000" d="M20,-8C20,-8 982,-8 982,-8 988,-8 994,-14 994,-20 994,-20 994,-754 994,-754 994,-760 988,-766 982,-766 982,-766 20,-766 20,-766 14,-766 8,-760 8,-754 8,-754 8,-20 8,-20 8,-14 14,-8 20,-8"/>
<text text-anchor="middle" x="501" y="-750.8" font-family="Arial" font-size="14.00" fill="#000000">root </text>
<text text-anchor="middle" x="501" y="-735.8" font-family="Arial" font-size="14.00" fill="#000000">: Root</text>
</a>
</g>
</g>
<g id="clust2" class="cluster">
<title>cluster_board</title>
<g id="a_clust2"><a xlink:title="auto_unlink_shared_backstore=false&#10;cache_line_size=64&#10;eventq_index=0&#10;exit_on_work_items=true&#10;external_memory_ranges=&#10;init_param=0&#10;m5ops_base=4294901760&#10;mem_mode=atomic&#10;mem_ranges=0:1073741824&#10;memories=board.memory.mem_ctrl.dram&#10;mmap_using_noreserve=false&#10;multi_thread=false&#10;&#10;um_work_ids=16&#10;&#13;eadfile=&#10;&#13;edirect_paths=&#10;shadow_rom_ranges=&#10;shared_backstore=&#10;symbolfile=&#10;thermal_components=&#10;thermal_model=Null&#10;work_begin_ckpt_count=0&#10;work_begin_cpu_id_exit=&#45;1&#10;work_begin_exit_count=0&#10;work_cpus_ckpt_count=0&#10;work_end_ckpt_count=0&#10;work_end_exit_count=0&#10;work_item_id=&#45;1&#10;workload=board.workload">
<path fill="#e4e7eb" stroke="#000000" d="M28,-16C28,-16 974,-16 974,-16 980,-16 986,-22 986,-28 986,-28 986,-708 986,-708 986,-714 980,-720 974,-720 974,-720 28,-720 28,-720 22,-720 16,-714 16,-708 16,-708 16,-28 16,-28 16,-22 22,-16 28,-16"/>
<text text-anchor="middle" x="501" y="-704.8" font-family="Arial" font-size="14.00" fill="#000000">board </text>
<text text-anchor="middle" x="501" y="-689.8" font-family="Arial" font-size="14.00" fill="#000000">: SimpleBoard</text>
</a>
</g>
</g>
<g id="clust6" class="cluster">
<title>cluster_board_processor</title>
<g id="a_clust6"><a xlink:title="eventq_index=0&#10;thermal_domain=Null">
<path fill="#bab6ae" stroke="#000000" d="M310,-314C310,-314 966,-314 966,-314 972,-314 978,-320 978,-326 978,-326 978,-662 978,-662 978,-668 972,-674 966,-674 966,-674 310,-674 310,-674 304,-674 298,-668 298,-662 298,-662 298,-326 298,-326 298,-320 304,-314 310,-314"/>
<text text-anchor="middle" x="638" y="-658.8" font-family="Arial" font-size="14.00" fill="#000000">processor </text>
<text text-anchor="middle" x="638" y="-643.8" font-family="Arial" font-size="14.00" fill="#000000">: SimpleProcessor</text>
</a>
</g>
</g>
<g id="clust7" class="cluster">
<title>cluster_board_processor_cores</title>
<g id="a_clust7"><a xlink:title="eventq_index=0&#10;thermal_domain=Null">
<path fill="#9f9c95" stroke="#000000" d="M318,-322C318,-322 958,-322 958,-322 964,-322 970,-328 970,-334 970,-334 970,-616 970,-616 970,-622 964,-628 958,-628 958,-628 318,-628 318,-628 312,-628 306,-622 306,-616 306,-616 306,-334 306,-334 306,-328 312,-322 318,-322"/>
<text text-anchor="middle" x="638" y="-612.8" font-family="Arial" font-size="14.00" fill="#000000">cores </text>
<text text-anchor="middle" x="638" y="-597.8" font-family="Arial" font-size="14.00" fill="#000000">: SimpleCore</text>
</a>
</g>
</g>
<g id="clust8" class="cluster">
<title>cluster_board_processor_cores_core</title>
<g id="a_clust8"><a xlink:title="branchPred=Null&#10;checker=Null&#10;clk_domain=board.clk_domain&#10;cpu_id=0&#10;decoder=board.processor.cores.core.decoder&#10;do_checkpoint_insts=true&#10;do_statistics_insts=true&#10;eventq_index=0&#10;function_trace=false&#10;function_trace_start=0&#10;interrupts=board.processor.cores.core.interrupts&#10;isa=board.processor.cores.core.isa&#10;max_insts_all_threads=0&#10;max_insts_any_thread=0&#10;mmu=board.processor.cores.core.mmu&#10;&#10;umThreads=1&#10;power_gating_on_idle=false&#10;power_model=&#10;power_state=board.processor.cores.core.power_state&#10;progress_interval=0&#10;pwr_gating_latency=300&#10;simpoint_start_insts=&#10;simulate_data_stalls=false&#10;simulate_inst_stalls=false&#10;socket_id=0&#10;switched_out=false&#10;syscallRetryLatency=10000&#10;system=board&#10;tracer=board.processor.cores.core.tracer&#10;width=1&#10;workload=board.processor.cores.core.workload">
<path fill="#bbc6d9" stroke="#000000" d="M326,-330C326,-330 950,-330 950,-330 956,-330 962,-336 962,-342 962,-342 962,-570 962,-570 962,-576 956,-582 950,-582 950,-582 326,-582 326,-582 320,-582 314,-576 314,-570 314,-570 314,-342 314,-342 314,-336 320,-330 326,-330"/>
<text text-anchor="middle" x="638" y="-566.8" font-family="Arial" font-size="14.00" fill="#000000">core </text>
<text text-anchor="middle" x="638" y="-551.8" font-family="Arial" font-size="14.00" fill="#000000">: RiscvAtomicSimpleCPU</text>
</a>
</g>
</g>
<g id="clust9" class="cluster">
<title>cluster_board_processor_cores_core_mmu</title>
<g id="a_clust9"><a xlink:title="dtb=board.processor.cores.core.mmu.dtb&#10;eventq_index=0&#10;itb=board.processor.cores.core.mmu.itb&#10;pma_checker=board.processor.cores.core.mmu.pma_checker&#10;pmp=board.processor.cores.core.mmu.pmp">
<path fill="#bab6ae" stroke="#000000" d="M558,-338C558,-338 942,-338 942,-338 948,-338 954,-344 954,-350 954,-350 954,-524 954,-524 954,-530 948,-536 942,-536 942,-536 558,-536 558,-536 552,-536 546,-530 546,-524 546,-524 546,-350 546,-350 546,-344 552,-338 558,-338"/>
<text text-anchor="middle" x="750" y="-520.8" font-family="Arial" font-size="14.00" fill="#000000">mmu </text>
<text text-anchor="middle" x="750" y="-505.8" font-family="Arial" font-size="14.00" fill="#000000">: RiscvMMU</text>
</a>
</g>
</g>
<g id="clust10" class="cluster">
<title>cluster_board_processor_cores_core_mmu_itb</title>
<g id="a_clust10"><a xlink:title="entry_type=instruction&#10;eventq_index=0&#10;&#10;ext_level=Null&#10;pma_checker=board.processor.cores.core.mmu.pma_checker&#10;pmp=board.processor.cores.core.mmu.pmp&#10;size=64&#10;walker=board.processor.cores.core.mmu.itb.walker">
<path fill="#9f9c95" stroke="#000000" d="M766,-346C766,-346 934,-346 934,-346 940,-346 946,-352 946,-358 946,-358 946,-478 946,-478 946,-484 940,-490 934,-490 934,-490 766,-490 766,-490 760,-490 754,-484 754,-478 754,-478 754,-358 754,-358 754,-352 760,-346 766,-346"/>
<text text-anchor="middle" x="850" y="-474.8" font-family="Arial" font-size="14.00" fill="#000000">itb </text>
<text text-anchor="middle" x="850" y="-459.8" font-family="Arial" font-size="14.00" fill="#000000">: RiscvTLB</text>
</a>
</g>
</g>
<g id="clust11" class="cluster">
<title>cluster_board_processor_cores_core_mmu_itb_walker</title>
<g id="a_clust11"><a xlink:title="clk_domain=board.clk_domain&#10;eventq_index=0&#10;&#10;um_squash_per_cycle=4&#10;pma_checker=board.processor.cores.core.mmu.pma_checker&#10;pmp=board.processor.cores.core.mmu.pmp&#10;power_model=&#10;power_state=board.processor.cores.core.mmu.itb.walker.power_state&#10;system=board">
<path fill="#84827c" stroke="#000000" d="M774,-354C774,-354 926,-354 926,-354 932,-354 938,-360 938,-366 938,-366 938,-432 938,-432 938,-438 932,-444 926,-444 926,-444 774,-444 774,-444 768,-444 762,-438 762,-432 762,-432 762,-366 762,-366 762,-360 768,-354 774,-354"/>
<text text-anchor="middle" x="850" y="-428.8" font-family="Arial" font-size="14.00" fill="#000000">walker </text>
<text text-anchor="middle" x="850" y="-413.8" font-family="Arial" font-size="14.00" fill="#000000">: RiscvPagetableWalker</text>
</a>
</g>
</g>
<g id="clust13" class="cluster">
<title>cluster_board_processor_cores_core_mmu_dtb</title>
<g id="a_clust13"><a xlink:title="entry_type=data&#10;eventq_index=0&#10;&#10;ext_level=Null&#10;pma_checker=board.processor.cores.core.mmu.pma_checker&#10;pmp=board.processor.cores.core.mmu.pmp&#10;size=64&#10;walker=board.processor.cores.core.mmu.dtb.walker">
<path fill="#9f9c95" stroke="#000000" d="M566,-346C566,-346 734,-346 734,-346 740,-346 746,-352 746,-358 746,-358 746,-478 746,-478 746,-484 740,-490 734,-490 734,-490 566,-490 566,-490 560,-490 554,-484 554,-478 554,-478 554,-358 554,-358 554,-352 560,-346 566,-346"/>
<text text-anchor="middle" x="650" y="-474.8" font-family="Arial" font-size="14.00" fill="#000000">dtb </text>
<text text-anchor="middle" x="650" y="-459.8" font-family="Arial" font-size="14.00" fill="#000000">: RiscvTLB</text>
</a>
</g>
</g>
<g id="clust14" class="cluster">
<title>cluster_board_processor_cores_core_mmu_dtb_walker</title>
<g id="a_clust14"><a xlink:title="clk_domain=board.clk_domain&#10;eventq_index=0&#10;&#10;um_squash_per_cycle=4&#10;pma_checker=board.processor.cores.core.mmu.pma_checker&#10;pmp=board.processor.cores.core.mmu.pmp&#10;power_model=&#10;power_state=board.processor.cores.core.mmu.dtb.walker.power_state&#10;system=board">
<path fill="#84827c" stroke="#000000" d="M574,-354C574,-354 726,-354 726,-354 732,-354 738,-360 738,-366 738,-366 738,-432 738,-432 738,-438 732,-444 726,-444 726,-444 574,-444 574,-444 568,-444 562,-438 562,-432 562,-432 562,-366 562,-366 562,-360 568,-354 574,-354"/>
<text text-anchor="middle" x="650" y="-428.8" font-family="Arial" font-size="14.00" fill="#000000">walker </text>
<text text-anchor="middle" x="650" y="-413.8" font-family="Arial" font-size="14.00" fill="#000000">: RiscvPagetableWalker</text>
</a>
</g>
</g>
<g id="clust25" class="cluster">
<title>cluster_board_memory</title>
<g id="a_clust25"><a xlink:title="eventq_index=0&#10;thermal_domain=Null">
<path fill="#bab6ae" stroke="#000000" d="M146,-346C146,-346 278,-346 278,-346 284,-346 290,-352 290,-358 290,-358 290,-478 290,-478 290,-484 284,-490 278,-490 278,-490 146,-490 146,-490 140,-490 134,-484 134,-478 134,-478 134,-358 134,-358 134,-352 140,-346 146,-346"/>
<text text-anchor="middle" x="212" y="-474.8" font-family="Arial" font-size="14.00" fill="#000000">memory </text>
<text text-anchor="middle" x="212" y="-459.8" font-family="Arial" font-size="14.00" fill="#000000">: ChanneledMemory</text>
</a>
</g>
</g>
<g id="clust26" class="cluster">
<title>cluster_board_memory_mem_ctrl</title>
<g id="a_clust26"><a xlink:title="clk_domain=board.clk_domain&#10;command_window=10000&#10;disable_sanity_check=false&#10;dram=board.memory.mem_ctrl.dram&#10;eventq_index=0&#10;mem_sched_policy=frfcfs&#10;min_reads_per_switch=16&#10;min_writes_per_switch=16&#10;power_model=&#10;power_state=board.memory.mem_ctrl.power_state&#10;qos_policy=Null&#10;qos_priorities=1&#10;qos_priority_escalation=false&#10;qos_q_policy=fifo&#10;qos_requestors= &#160;&#160;&#160;&#160;&#160;&#160;&#160;&#160;&#160;&#160;&#160;&#160;&#160;&#160;&#10;qos_syncro_scheduler=false&#10;qos_turnaround_policy=Null&#10;static_backend_latency=10000&#10;static_frontend_latency=10000&#10;system=board&#10;write_high_thresh_perc=85&#10;write_low_thresh_perc=50">
<path fill="#9f9c95" stroke="#000000" d="M208,-354C208,-354 270,-354 270,-354 276,-354 282,-360 282,-366 282,-366 282,-432 282,-432 282,-438 276,-444 270,-444 270,-444 208,-444 208,-444 202,-444 196,-438 196,-432 196,-432 196,-366 196,-366 196,-360 202,-354 208,-354"/>
<text text-anchor="middle" x="239" y="-428.8" font-family="Arial" font-size="14.00" fill="#000000">mem_ctrl </text>
<text text-anchor="middle" x="239" y="-413.8" font-family="Arial" font-size="14.00" fill="#000000">: MemCtrl</text>
</a>
</g>
</g>
<g id="clust30" class="cluster">
<title>cluster_board_cache_hierarchy</title>
<g id="a_clust30"><a xlink:title="eventq_index=0&#10;thermal_domain=Null">
<path fill="#bab6ae" stroke="#000000" d="M144,-24C144,-24 504,-24 504,-24 510,-24 516,-30 516,-36 516,-36 516,-294 516,-294 516,-300 510,-306 504,-306 504,-306 144,-306 144,-306 138,-306 132,-300 132,-294 132,-294 132,-36 132,-36 132,-30 138,-24 144,-24"/>
<text text-anchor="middle" x="324" y="-290.8" font-family="Arial" font-size="14.00" fill="#000000">cache_hierarchy </text>
<text text-anchor="middle" x="324" y="-275.8" font-family="Arial" font-size="14.00" fill="#000000">: NoCache</text>
</a>
</g>
</g>
<g id="clust31" class="cluster">
<title>cluster_board_cache_hierarchy_membus</title>
<g id="a_clust31"><a xlink:title="clk_domain=board.clk_domain&#10;eventq_index=0&#10;forward_latency=4&#10;frontend_latency=3&#10;header_latency=1&#10;max_outstanding_snoops=512&#10;max_routing_table_size=2048&#10;point_of_coherency=true&#10;point_of_unification=true&#10;power_model=&#10;power_state=board.cache_hierarchy.membus.power_state&#10;&#13;esponse_latency=2&#10;snoop_filter=board.cache_hierarchy.membus.snoop_filter&#10;snoop_response_latency=4&#10;system=board&#10;use_default_range=false&#10;width=64">
<path fill="#6f798c" stroke="#000000" d="M152,-32C152,-32 496,-32 496,-32 502,-32 508,-38 508,-44 508,-44 508,-248 508,-248 508,-254 502,-260 496,-260 496,-260 152,-260 152,-260 146,-260 140,-254 140,-248 140,-248 140,-44 140,-44 140,-38 146,-32 152,-32"/>
<text text-anchor="middle" x="324" y="-244.8" font-family="Arial" font-size="14.00" fill="#000000">membus </text>
<text text-anchor="middle" x="324" y="-229.8" font-family="Arial" font-size="14.00" fill="#000000">: SystemXBar</text>
</a>
</g>
</g>
<g id="clust34" class="cluster">
<title>cluster_board_cache_hierarchy_membus_badaddr_responder</title>
<g id="a_clust34"><a xlink:title="clk_domain=board.clk_domain&#10;eventq_index=0&#10;fake_mem=false&#10;pio_addr=0&#10;pio_latency=100000&#10;pio_size=8&#10;power_model=&#10;power_state=board.cache_hierarchy.membus.badaddr_responder.power_state&#10;&#13;et_bad_addr=true&#10;&#13;et_data16=65535&#10;&#13;et_data32=4294967295&#10;&#13;et_data64=18446744073709551615&#10;&#13;et_data8=255&#10;system=board&#10;update_data=false&#10;warn_access=">
<path fill="#c7a793" stroke="#000000" d="M160,-40C160,-40 293,-40 293,-40 299,-40 305,-46 305,-52 305,-52 305,-118 305,-118 305,-124 299,-130 293,-130 293,-130 160,-130 160,-130 154,-130 148,-124 148,-118 148,-118 148,-52 148,-52 148,-46 154,-40 160,-40"/>
<text text-anchor="middle" x="226.5" y="-114.8" font-family="Arial" font-size="14.00" fill="#000000">badaddr_responder </text>
<text text-anchor="middle" x="226.5" y="-99.8" font-family="Arial" font-size="14.00" fill="#000000">: BadAddr</text>
</a>
</g>
</g>
<!-- board_system_port -->
<g id="node1" class="node">
<title>board_system_port</title>
<path fill="#b6b8bc" stroke="#000000" d="M114,-398C114,-398 36,-398 36,-398 30,-398 24,-392 24,-386 24,-386 24,-374 24,-374 24,-368 30,-362 36,-362 36,-362 114,-362 114,-362 120,-362 126,-368 126,-374 126,-374 126,-386 126,-386 126,-392 120,-398 114,-398"/>
<text text-anchor="middle" x="75" y="-376.3" font-family="Arial" font-size="14.00" fill="#000000">system_port</text>
</g>
<!-- board_cache_hierarchy_membus_cpu_side_ports -->
<g id="node7" class="node">
<title>board_cache_hierarchy_membus_cpu_side_ports</title>
<path fill="#586070" stroke="#000000" d="M488,-214C488,-214 392,-214 392,-214 386,-214 380,-208 380,-202 380,-202 380,-190 380,-190 380,-184 386,-178 392,-178 392,-178 488,-178 488,-178 494,-178 500,-184 500,-190 500,-190 500,-202 500,-202 500,-208 494,-214 488,-214"/>
<text text-anchor="middle" x="440" y="-192.3" font-family="Arial" font-size="14.00" fill="#000000">cpu_side_ports</text>
</g>
<!-- board_system_port&#45;&gt;board_cache_hierarchy_membus_cpu_side_ports -->
<g id="edge1" class="edge">
<title>board_system_port&#45;&gt;board_cache_hierarchy_membus_cpu_side_ports</title>
<path fill="none" stroke="black" d="M98.21,-361.81C120.85,-346.13 156.9,-323.94 192,-314 211.16,-308.58 353.78,-315.99 371,-306 401.96,-288.05 421.15,-250.04 431.21,-224.01"/>
<polygon fill="black" stroke="black" points="434.59,-224.94 434.73,-214.35 428.01,-222.54 434.59,-224.94"/>
</g>
<!-- board_processor_cores_core_icache_port -->
<g id="node2" class="node">
<title>board_processor_cores_core_icache_port</title>
<path fill="#959ead" stroke="#000000" d="M526,-398C526,-398 454,-398 454,-398 448,-398 442,-392 442,-386 442,-386 442,-374 442,-374 442,-368 448,-362 454,-362 454,-362 526,-362 526,-362 532,-362 538,-368 538,-374 538,-374 538,-386 538,-386 538,-392 532,-398 526,-398"/>
<text text-anchor="middle" x="490" y="-376.3" font-family="Arial" font-size="14.00" fill="#000000">icache_port</text>
</g>
<!-- board_processor_cores_core_icache_port&#45;&gt;board_cache_hierarchy_membus_cpu_side_ports -->
<g id="edge2" class="edge">
<title>board_processor_cores_core_icache_port&#45;&gt;board_cache_hierarchy_membus_cpu_side_ports</title>
<path fill="none" stroke="black" d="M485.3,-361.88C476.59,-330.17 457.88,-262.09 447.44,-224.08"/>
<polygon fill="black" stroke="black" points="450.75,-222.92 444.73,-214.21 444,-224.78 450.75,-222.92"/>
</g>
<!-- board_processor_cores_core_dcache_port -->
<g id="node3" class="node">
<title>board_processor_cores_core_dcache_port</title>
<path fill="#959ead" stroke="#000000" d="M411.5,-398C411.5,-398 334.5,-398 334.5,-398 328.5,-398 322.5,-392 322.5,-386 322.5,-386 322.5,-374 322.5,-374 322.5,-368 328.5,-362 334.5,-362 334.5,-362 411.5,-362 411.5,-362 417.5,-362 423.5,-368 423.5,-374 423.5,-374 423.5,-386 423.5,-386 423.5,-392 417.5,-398 411.5,-398"/>
<text text-anchor="middle" x="373" y="-376.3" font-family="Arial" font-size="14.00" fill="#000000">dcache_port</text>
</g>
<!-- board_processor_cores_core_dcache_port&#45;&gt;board_cache_hierarchy_membus_cpu_side_ports -->
<g id="edge3" class="edge">
<title>board_processor_cores_core_dcache_port&#45;&gt;board_cache_hierarchy_membus_cpu_side_ports</title>
<path fill="none" stroke="black" d="M379.3,-361.88C390.98,-330.17 416.04,-262.09 430.03,-224.08"/>
<polygon fill="black" stroke="black" points="433.49,-224.8 433.66,-214.21 426.93,-222.38 433.49,-224.8"/>
</g>
<!-- board_processor_cores_core_mmu_itb_walker_port -->
<g id="node4" class="node">
<title>board_processor_cores_core_mmu_itb_walker_port</title>
<path fill="#6a6863" stroke="#000000" d="M812,-398C812,-398 782,-398 782,-398 776,-398 770,-392 770,-386 770,-386 770,-374 770,-374 770,-368 776,-362 782,-362 782,-362 812,-362 812,-362 818,-362 824,-368 824,-374 824,-374 824,-386 824,-386 824,-392 818,-398 812,-398"/>
<text text-anchor="middle" x="797" y="-376.3" font-family="Arial" font-size="14.00" fill="#000000">port</text>
</g>
<!-- board_processor_cores_core_mmu_itb_walker_port&#45;&gt;board_cache_hierarchy_membus_cpu_side_ports -->
<g id="edge4" class="edge">
<title>board_processor_cores_core_mmu_itb_walker_port&#45;&gt;board_cache_hierarchy_membus_cpu_side_ports</title>
<path fill="none" stroke="black" d="M786.2,-361.99C776.26,-347.51 760.3,-327.04 742,-314 670.68,-263.18 574.35,-230.89 509.85,-213.39"/>
<polygon fill="black" stroke="black" points="510.74,-210.01 500.17,-210.82 508.93,-216.77 510.74,-210.01"/>
</g>
<!-- board_processor_cores_core_mmu_dtb_walker_port -->
<g id="node5" class="node">
<title>board_processor_cores_core_mmu_dtb_walker_port</title>
<path fill="#6a6863" stroke="#000000" d="M612,-398C612,-398 582,-398 582,-398 576,-398 570,-392 570,-386 570,-386 570,-374 570,-374 570,-368 576,-362 582,-362 582,-362 612,-362 612,-362 618,-362 624,-368 624,-374 624,-374 624,-386 624,-386 624,-392 618,-398 612,-398"/>
<text text-anchor="middle" x="597" y="-376.3" font-family="Arial" font-size="14.00" fill="#000000">port</text>
</g>
<!-- board_processor_cores_core_mmu_dtb_walker_port&#45;&gt;board_cache_hierarchy_membus_cpu_side_ports -->
<g id="edge5" class="edge">
<title>board_processor_cores_core_mmu_dtb_walker_port&#45;&gt;board_cache_hierarchy_membus_cpu_side_ports</title>
<path fill="none" stroke="black" d="M590.84,-361.74C585.49,-348.04 576.88,-328.81 566,-314 538.93,-277.16 499.15,-242.52 471.56,-220.64"/>
<polygon fill="black" stroke="black" points="473.45,-217.67 463.42,-214.27 469.14,-223.19 473.45,-217.67"/>
</g>
<!-- board_memory_mem_ctrl_port -->
<g id="node6" class="node">
<title>board_memory_mem_ctrl_port</title>
<path fill="#7f7c77" stroke="#000000" d="M262,-398C262,-398 232,-398 232,-398 226,-398 220,-392 220,-386 220,-386 220,-374 220,-374 220,-368 226,-362 232,-362 232,-362 262,-362 262,-362 268,-362 274,-368 274,-374 274,-374 274,-386 274,-386 274,-392 268,-398 262,-398"/>
<text text-anchor="middle" x="247" y="-376.3" font-family="Arial" font-size="14.00" fill="#000000">port</text>
</g>
<!-- board_cache_hierarchy_membus_mem_side_ports -->
<g id="node8" class="node">
<title>board_cache_hierarchy_membus_mem_side_ports</title>
<path fill="#586070" stroke="#000000" d="M350,-214C350,-214 244,-214 244,-214 238,-214 232,-208 232,-202 232,-202 232,-190 232,-190 232,-184 238,-178 244,-178 244,-178 350,-178 350,-178 356,-178 362,-184 362,-190 362,-190 362,-202 362,-202 362,-208 356,-214 350,-214"/>
<text text-anchor="middle" x="297" y="-192.3" font-family="Arial" font-size="14.00" fill="#000000">mem_side_ports</text>
</g>
<!-- board_memory_mem_ctrl_port&#45;&gt;board_cache_hierarchy_membus_mem_side_ports -->
<g id="edge6" class="edge">
<title>board_memory_mem_ctrl_port&#45;&gt;board_cache_hierarchy_membus_mem_side_ports</title>
<path fill="none" stroke="black" d="M254.41,-352.03C264.84,-314.07 283.54,-245.98 292.27,-214.21"/>
<polygon fill="black" stroke="black" points="250.98,-351.31 251.7,-361.88 257.73,-353.16 250.98,-351.31"/>
</g>
<!-- board_cache_hierarchy_membus_default -->
<g id="node9" class="node">
<title>board_cache_hierarchy_membus_default</title>
<path fill="#586070" stroke="#000000" d="M201.5,-214C201.5,-214 160.5,-214 160.5,-214 154.5,-214 148.5,-208 148.5,-202 148.5,-202 148.5,-190 148.5,-190 148.5,-184 154.5,-178 160.5,-178 160.5,-178 201.5,-178 201.5,-178 207.5,-178 213.5,-184 213.5,-190 213.5,-190 213.5,-202 213.5,-202 213.5,-208 207.5,-214 201.5,-214"/>
<text text-anchor="middle" x="181" y="-192.3" font-family="Arial" font-size="14.00" fill="#000000">default</text>
</g>
<!-- board_cache_hierarchy_membus_badaddr_responder_pio -->
<g id="node10" class="node">
<title>board_cache_hierarchy_membus_badaddr_responder_pio</title>
<path fill="#9f8575" stroke="#000000" d="M198,-84C198,-84 168,-84 168,-84 162,-84 156,-78 156,-72 156,-72 156,-60 156,-60 156,-54 162,-48 168,-48 168,-48 198,-48 198,-48 204,-48 210,-54 210,-60 210,-60 210,-72 210,-72 210,-78 204,-84 198,-84"/>
<text text-anchor="middle" x="183" y="-62.3" font-family="Arial" font-size="14.00" fill="#000000">pio</text>
</g>
<!-- board_cache_hierarchy_membus_default&#45;&gt;board_cache_hierarchy_membus_badaddr_responder_pio -->
<g id="edge7" class="edge">
<title>board_cache_hierarchy_membus_default&#45;&gt;board_cache_hierarchy_membus_badaddr_responder_pio</title>
<path fill="none" stroke="black" d="M181.27,-177.74C181.6,-156.36 182.18,-119.69 182.57,-94.44"/>
<polygon fill="black" stroke="black" points="186.07,-94.45 182.73,-84.4 179.07,-94.34 186.07,-94.45"/>
</g>
</g>
</svg>
