<?xml version="1.0" encoding="UTF-8" standalone="no"?>
<!DOCTYPE svg PUBLIC "-//W3C//DTD SVG 1.1//EN"
 "http://www.w3.org/Graphics/SVG/1.1/DTD/svg11.dtd">
<!-- Generated by graphviz version 2.43.0 (0)
 -->
<!-- Title: G Pages: 1 -->
<svg width="1010pt" height="782pt"
 viewBox="0.00 0.00 1010.00 782.00" xmlns="http://www.w3.org/2000/svg" xmlns:xlink="http://www.w3.org/1999/xlink">
<g id="graph0" class="graph" transform="scale(1 1) rotate(0) translate(4 778)">
<title>G</title>
<polygon fill="white" stroke="transparent" points="-4,4 -4,-778 1006,-778 1006,4 -4,4"/>
<g id="clust1" class="cluster">
<title>cluster_root</title>
<g id="a_clust1"><a xlink:title="eventq_index=0&#10;full_system=false&#10;sim_quantum=0&#10;time_sync_enable=false&#10;time_sync_period=100000000000&#10;time_sync_spin_threshold=100000000">
<path fill="#bab6ae" stroke="#000000" d="M20,-8C20,-8 982,-8 982,-8 988,-8 994,-14 994,-20 994,-20 994,-754 994,-754 994,-760 988,-766 982,-766 982,-766 20,-766 20,-766 14,-766 8,-760 8,-754 8,-754 8,-20 8,-20 8,-14 14,-8 20,-8"/>
<text text-anchor="middle" x="501" y="-750.8" font-family="Arial" font-size="14.00" fill="#000000">root </text>
<text text-anchor="middle" x="501" y="-735.8" font-family="Arial" font-size="14.00" fill="#000000">: Root</text>
</a>
</g>
</g>
<g id="clust2" class="cluster">
<title>cluster_board</title>
<g id="a_clust2"><a xlink:title="auto_unlink_shared_backstore=false&#10;cache_line_size=64&#10;eventq_index=0&#10;exit_on_work_items=true&#10;external_memory_ranges=&#10;init_param=0&#10;m5ops_base=4294901760&#10;mem_mode=timing&#10;mem_ranges=0:1073741824&#10;memories=board.memory.mem_ctrl.dram&#10;mmap_using_noreserve=false&#10;multi_thread=false&#10;&#10;um_work_ids=16&#10;&#13;eadfile=&#10;&#13;edirect_paths=&#10;shadow_rom_ranges=&#10;shared_backstore=&#10;symbolfile=&#10;thermal_components=&#10;thermal_model=Null&#10;work_begin_ckpt_count=0&#10;work_begin_cpu_id_exit=&#45;1&#10;work_begin_exit_count=0&#10;work_cpus_ckpt_count=0&#10;work_end_ckpt_count=0&#10;work_end_exit_count=0&#10;work_item_id=&#45;1&#10;workload=board.workload">
<path fill="#e4e7eb" stroke="#000000" d="M28,-16C28,-16 974,-16 974,-16 980,-16 986,-22 986,-28 986,-28 986,-708 986,-708 986,-714 980,-720 974,-720 974,-720 28,-720 28,-720 22,-720 16,-714 16,-708 16,-708 16,-28 16,-28 16,-22 22,-16 28,-16"/>
<text text-anchor="middle" x="501" y="-704.8" font-family="Arial" font-size="14.00" fill="#000000">board </text>
<text text-anchor="middle" x="501" y="-689.8" font-family="Arial" font-size="14.00" fill="#000000">: SimpleBoard</text>
</a>
</g>
</g>
<g id="clust6" class="cluster">
<title>cluster_board_processor</title>
<g id="a_clust6"><a xlink:title="eventq_index=0&#10;thermal_domain=Null">
<path fill="#bab6ae" stroke="#000000" d="M310,-314C310,-314 966,-314 966,-314 972,-314 978,-320 978,-326 978,-326 978,-662 978,-662 978,-668 972,-674 966,-674 966,-674 310,-674 310,-674 304,-674 298,-668 298,-662 298,-662 298,-326 298,-326 298,-320 304,-314 310,-314"/>
<text text-anchor="middle" x="638" y="-658.8" font-family="Arial" font-size="14.00" fill="#000000">processor </text>
<text text-anchor="middle" x="638" y="-643.8" font-family="Arial" font-size="14.00" fill="#000000">: SimpleProcessor</text>
</a>
</g>
</g>
<g id="clust7" class="cluster">
<title>cluster_board_processor_cores</title>
<g id="a_clust7"><a xlink:title="eventq_index=0&#10;thermal_domain=Null">
<path fill="#9f9c95" stroke="#000000" d="M318,-322C318,-322 958,-322 958,-322 964,-322 970,-328 970,-334 970,-334 970,-616 970,-616 970,-622 964,-628 958,-628 958,-628 318,-628 318,-628 312,-628 306,-622 306,-616 306,-616 306,-334 306,-334 306,-328 312,-322 318,-322"/>
<text text-anchor="middle" x="638" y="-612.8" font-family="Arial" font-size="14.00" fill="#000000">cores </text>
<text text-anchor="middle" x="638" y="-597.8" font-family="Arial" font-size="14.00" fill="#000000">: SimpleCore</text>
</a>
</g>
</g>
<g id="clust8" class="cluster">
<title>cluster_board_processor_cores_core</title>
<g id="a_clust8"><a xlink:title="branchPred=board.processor.cores.core.branchPred&#10;checker=Null&#10;clk_domain=board.clk_domain&#10;cpu_id=0&#10;decodeCycleInput=true&#10;decodeInputBufferSize=3&#10;decodeInputWidth=2&#10;decodeToExecuteForwardDelay=1&#10;decoder=board.processor.cores.core.decoder&#10;do_checkpoint_insts=true&#10;do_statistics_insts=true&#10;enableIdling=true&#10;eventq_index=0&#10;executeAllowEarlyMemoryIssue=true&#10;executeBranchDelay=1&#10;executeCommitLimit=2&#10;executeCycleInput=true&#10;executeFuncUnits=board.processor.cores.core.executeFuncUnits&#10;executeInputBufferSize=7&#10;executeInputWidth=2&#10;executeIssueLimit=2&#10;executeLSQMaxStoreBufferStoresPerCycle=2&#10;executeLSQRequestsQueueSize=1&#10;executeLSQStoreBufferSize=5&#10;executeLSQTransfersQueueSize=2&#10;executeMaxAccessesInMemory=2&#10;executeMemoryCommitLimit=1&#10;executeMemoryIssueLimit=1&#10;executeMemoryWidth=0&#10;executeSetTraceTimeOnCommit=true&#10;executeSetTraceTimeOnIssue=false&#10;fetch1FetchLimit=1&#10;fetch1LineSnapWidth=0&#10;fetch1LineWidth=0&#10;fetch1ToFetch2BackwardDelay=1&#10;fetch1ToFetch2ForwardDelay=1&#10;fetch2CycleInput=true&#10;fetch2InputBufferSize=2&#10;fetch2ToDecodeForwardDelay=1&#10;function_trace=false&#10;function_trace_start=0&#10;interrupts=board.processor.cores.core.interrupts&#10;isa=board.processor.cores.core.isa&#10;max_insts_all_threads=0&#10;max_insts_any_thread=0&#10;mmu=board.processor.cores.core.mmu&#10;&#10;umThreads=1&#10;power_gating_on_idle=false&#10;power_model=&#10;power_state=board.processor.cores.core.power_state&#10;progress_interval=0&#10;pwr_gating_latency=300&#10;simpoint_start_insts=&#10;socket_id=0&#10;switched_out=false&#10;syscallRetryLatency=10000&#10;system=board&#10;threadPolicy=RoundRobin&#10;tracer=board.processor.cores.core.tracer&#10;workload=board.processor.cores.core.workload">
<path fill="#bbc6d9" stroke="#000000" d="M326,-330C326,-330 950,-330 950,-330 956,-330 962,-336 962,-342 962,-342 962,-570 962,-570 962,-576 956,-582 950,-582 950,-582 326,-582 326,-582 320,-582 314,-576 314,-570 314,-570 314,-342 314,-342 314,-336 320,-330 326,-330"/>
<text text-anchor="middle" x="638" y="-566.8" font-family="Arial" font-size="14.00" fill="#000000">core </text>
<text text-anchor="middle" x="638" y="-551.8" font-family="Arial" font-size="14.00" fill="#000000">: RiscvMinorCPU</text>
</a>
</g>
</g>
<g id="clust9" class="cluster">
<title>cluster_board_processor_cores_core_mmu</title>
<g id="a_clust9"><a xlink:title="dtb=board.processor.cores.core.mmu.dtb&#10;eventq_index=0&#10;itb=board.processor.cores.core.mmu.itb&#10;pma_checker=board.processor.cores.core.mmu.pma_checker&#10;pmp=board.processor.cores.core.mmu.pmp">
<path fill="#bab6ae" stroke="#000000" d="M334,-338C334,-338 718,-338 718,-338 724,-338 730,-344 730,-350 730,-350 730,-524 730,-524 730,-530 724,-536 718,-536 718,-536 334,-536 334,-536 328,-536 322,-530 322,-524 322,-524 322,-350 322,-350 322,-344 328,-338 334,-338"/>
<text text-anchor="middle" x="526" y="-520.8" font-family="Arial" font-size="14.00" fill="#000000">mmu </text>
<text text-anchor="middle" x="526" y="-505.8" font-family="Arial" font-size="14.00" fill="#000000">: RiscvMMU</text>
</a>
</g>
</g>
<g id="clust10" class="cluster">
<title>cluster_board_processor_cores_core_mmu_itb</title>
<g id="a_clust10"><a xlink:title="entry_type=instruction&#10;eventq_index=0&#10;&#10;ext_level=Null&#10;pma_checker=board.processor.cores.core.mmu.pma_checker&#10;pmp=board.processor.cores.core.mmu.pmp&#10;size=64&#10;walker=board.processor.cores.core.mmu.itb.walker">
<path fill="#9f9c95" stroke="#000000" d="M542,-346C542,-346 710,-346 710,-346 716,-346 722,-352 722,-358 722,-358 722,-478 722,-478 722,-484 716,-490 710,-490 710,-490 542,-490 542,-490 536,-490 530,-484 530,-478 530,-478 530,-358 530,-358 530,-352 536,-346 542,-346"/>
<text text-anchor="middle" x="626" y="-474.8" font-family="Arial" font-size="14.00" fill="#000000">itb </text>
<text text-anchor="middle" x="626" y="-459.8" font-family="Arial" font-size="14.00" fill="#000000">: RiscvTLB</text>
</a>
</g>
</g>
<g id="clust11" class="cluster">
<title>cluster_board_processor_cores_core_mmu_itb_walker</title>
<g id="a_clust11"><a xlink:title="clk_domain=board.clk_domain&#10;eventq_index=0&#10;&#10;um_squash_per_cycle=4&#10;pma_checker=board.processor.cores.core.mmu.pma_checker&#10;pmp=board.processor.cores.core.mmu.pmp&#10;power_model=&#10;power_state=board.processor.cores.core.mmu.itb.walker.power_state&#10;system=board">
<path fill="#84827c" stroke="#000000" d="M550,-354C550,-354 702,-354 702,-354 708,-354 714,-360 714,-366 714,-366 714,-432 714,-432 714,-438 708,-444 702,-444 702,-444 550,-444 550,-444 544,-444 538,-438 538,-432 538,-432 538,-366 538,-366 538,-360 544,-354 550,-354"/>
<text text-anchor="middle" x="626" y="-428.8" font-family="Arial" font-size="14.00" fill="#000000">walker </text>
<text text-anchor="middle" x="626" y="-413.8" font-family="Arial" font-size="14.00" fill="#000000">: RiscvPagetableWalker</text>
</a>
</g>
</g>
<g id="clust13" class="cluster">
<title>cluster_board_processor_cores_core_mmu_dtb</title>
<g id="a_clust13"><a xlink:title="entry_type=data&#10;eventq_index=0&#10;&#10;ext_level=Null&#10;pma_checker=board.processor.cores.core.mmu.pma_checker&#10;pmp=board.processor.cores.core.mmu.pmp&#10;size=64&#10;walker=board.processor.cores.core.mmu.dtb.walker">
<path fill="#9f9c95" stroke="#000000" d="M342,-346C342,-346 510,-346 510,-346 516,-346 522,-352 522,-358 522,-358 522,-478 522,-478 522,-484 516,-490 510,-490 510,-490 342,-490 342,-490 336,-490 330,-484 330,-478 330,-478 330,-358 330,-358 330,-352 336,-346 342,-346"/>
<text text-anchor="middle" x="426" y="-474.8" font-family="Arial" font-size="14.00" fill="#000000">dtb </text>
<text text-anchor="middle" x="426" y="-459.8" font-family="Arial" font-size="14.00" fill="#000000">: RiscvTLB</text>
</a>
</g>
</g>
<g id="clust14" class="cluster">
<title>cluster_board_processor_cores_core_mmu_dtb_walker</title>
<g id="a_clust14"><a xlink:title="clk_domain=board.clk_domain&#10;eventq_index=0&#10;&#10;um_squash_per_cycle=4&#10;pma_checker=board.processor.cores.core.mmu.pma_checker&#10;pmp=board.processor.cores.core.mmu.pmp&#10;power_model=&#10;power_state=board.processor.cores.core.mmu.dtb.walker.power_state&#10;system=board">
<path fill="#84827c" stroke="#000000" d="M350,-354C350,-354 502,-354 502,-354 508,-354 514,-360 514,-366 514,-366 514,-432 514,-432 514,-438 508,-444 502,-444 502,-444 350,-444 350,-444 344,-444 338,-438 338,-432 338,-432 338,-366 338,-366 338,-360 344,-354 350,-354"/>
<text text-anchor="middle" x="426" y="-428.8" font-family="Arial" font-size="14.00" fill="#000000">walker </text>
<text text-anchor="middle" x="426" y="-413.8" font-family="Arial" font-size="14.00" fill="#000000">: RiscvPagetableWalker</text>
</a>
</g>
</g>
<g id="clust147" class="cluster">
<title>cluster_board_memory</title>
<g id="a_clust147"><a xlink:title="eventq_index=0&#10;thermal_domain=Null">
<path fill="#bab6ae" stroke="#000000" d="M146,-346C146,-346 278,-346 278,-346 284,-346 290,-352 290,-358 290,-358 290,-478 290,-478 290,-484 284,-490 278,-490 278,-490 146,-490 146,-490 140,-490 134,-484 134,-478 134,-478 134,-358 134,-358 134,-352 140,-346 146,-346"/>
<text text-anchor="middle" x="212" y="-474.8" font-family="Arial" font-size="14.00" fill="#000000">memory </text>
<text text-anchor="middle" x="212" y="-459.8" font-family="Arial" font-size="14.00" fill="#000000">: ChanneledMemory</text>
</a>
</g>
</g>
<g id="clust148" class="cluster">
<title>cluster_board_memory_mem_ctrl</title>
<g id="a_clust148"><a xlink:title="clk_domain=board.clk_domain&#10;command_window=10000&#10;disable_sanity_check=false&#10;dram=board.memory.mem_ctrl.dram&#10;eventq_index=0&#10;mem_sched_policy=frfcfs&#10;min_reads_per_switch=16&#10;min_writes_per_switch=16&#10;power_model=&#10;power_state=board.memory.mem_ctrl.power_state&#10;qos_policy=Null&#10;qos_priorities=1&#10;qos_priority_escalation=false&#10;qos_q_policy=fifo&#10;qos_requestors= &#160;&#160;&#160;&#160;&#160;&#160;&#160;&#160;&#160;&#160;&#160;&#160;&#160;&#160;&#10;qos_syncro_scheduler=false&#10;qos_turnaround_policy=Null&#10;static_backend_latency=10000&#10;static_frontend_latency=10000&#10;system=board&#10;write_high_thresh_perc=85&#10;write_low_thresh_perc=50">
<path fill="#9f9c95" stroke="#000000" d="M208,-354C208,-354 270,-354 270,-354 276,-354 282,-360 282,-366 282,-366 282,-432 282,-432 282,-438 276,-444 270,-444 270,-444 208,-444 208,-444 202,-444 196,-438 196,-432 196,-432 196,-366 196,-366 196,-360 202,-354 208,-354"/>
<text text-anchor="middle" x="239" y="-428.8" font-family="Arial" font-size="14.00" fill="#000000">mem_ctrl </text>
<text text-anchor="middle" x="239" y="-413.8" font-family="Arial" font-size="14.00" fill="#000000">: MemCtrl</text>
</a>
</g>
</g>
<g id="clust152" class="cluster">
<title>cluster_board_cache_hierarchy</title>
<g id="a_clust152"><a xlink:title="eventq_index=0&#10;thermal_domain=Null">
<path fill="#bab6ae" stroke="#000000" d="M172,-24C172,-24 946,-24 946,-24 952,-24 958,-30 958,-36 958,-36 958,-294 958,-294 958,-300 952,-306 946,-306 946,-306 172,-306 172,-306 166,-306 160,-300 160,-294 160,-294 160,-36 160,-36 160,-30 166,-24 172,-24"/>
<text text-anchor="middle" x="559" y="-290.8" font-family="Arial" font-size="14.00" fill="#000000">cache_hierarchy </text>
<text text-anchor="middle" x="559" y="-275.8" font-family="Arial" font-size="14.00" fill="#000000">: PrivateL1CacheHierarchy</text>
</a>
</g>
</g>
<g id="clust153" class="cluster">
<title>cluster_board_cache_hierarchy_membus</title>
<g id="a_clust153"><a xlink:title="clk_domain=board.clk_domain&#10;eventq_index=0&#10;forward_latency=4&#10;frontend_latency=3&#10;header_latency=1&#10;max_outstanding_snoops=512&#10;max_routing_table_size=512&#10;point_of_coherency=true&#10;point_of_unification=true&#10;power_model=&#10;power_state=board.cache_hierarchy.membus.power_state&#10;&#13;esponse_latency=2&#10;snoop_filter=board.cache_hierarchy.membus.snoop_filter&#10;snoop_response_latency=4&#10;system=board&#10;use_default_range=false&#10;width=64">
<path fill="#6f798c" stroke="#000000" d="M180,-32C180,-32 524,-32 524,-32 530,-32 536,-38 536,-44 536,-44 536,-248 536,-248 536,-254 530,-260 524,-260 524,-260 180,-260 180,-260 174,-260 168,-254 168,-248 168,-248 168,-44 168,-44 168,-38 174,-32 180,-32"/>
<text text-anchor="middle" x="352" y="-244.8" font-family="Arial" font-size="14.00" fill="#000000">membus </text>
<text text-anchor="middle" x="352" y="-229.8" font-family="Arial" font-size="14.00" fill="#000000">: SystemXBar</text>
</a>
</g>
</g>
<g id="clust156" class="cluster">
<title>cluster_board_cache_hierarchy_membus_badaddr_responder</title>
<g id="a_clust156"><a xlink:title="clk_domain=board.clk_domain&#10;eventq_index=0&#10;fake_mem=false&#10;pio_addr=0&#10;pio_latency=100000&#10;pio_size=8&#10;power_model=&#10;power_state=board.cache_hierarchy.membus.badaddr_responder.power_state&#10;&#13;et_bad_addr=true&#10;&#13;et_data16=65535&#10;&#13;et_data32=4294967295&#10;&#13;et_data64=18446744073709551615&#10;&#13;et_data8=255&#10;system=board&#10;update_data=false&#10;warn_access=">
<path fill="#c7a793" stroke="#000000" d="M188,-40C188,-40 321,-40 321,-40 327,-40 333,-46 333,-52 333,-52 333,-118 333,-118 333,-124 327,-130 321,-130 321,-130 188,-130 188,-130 182,-130 176,-124 176,-118 176,-118 176,-52 176,-52 176,-46 182,-40 188,-40"/>
<text text-anchor="middle" x="254.5" y="-114.8" font-family="Arial" font-size="14.00" fill="#000000">badaddr_responder </text>
<text text-anchor="middle" x="254.5" y="-99.8" font-family="Arial" font-size="14.00" fill="#000000">: BadAddr</text>
</a>
</g>
</g>
<g id="clust158" class="cluster">
<title>cluster_board_cache_hierarchy_l1icaches</title>
<g id="a_clust158"><a xlink:title="addr_ranges=0:18446744073709551615&#10;assoc=8&#10;clk_domain=board.clk_domain&#10;clusivity=mostly_incl&#10;compressor=Null&#10;data_latency=1&#10;demand_mshr_reserve=1&#10;eventq_index=0&#10;is_read_only=false&#10;max_miss_count=0&#10;move_contractions=true&#10;mshrs=16&#10;partitioning_manager=Null&#10;power_model=&#10;power_state=board.cache_hierarchy.l1icaches.power_state&#10;prefetcher=board.cache_hierarchy.l1icaches.prefetcher&#10;&#13;eplace_expansions=true&#10;&#13;eplacement_policy=board.cache_hierarchy.l1icaches.replacement_policy&#10;&#13;esponse_latency=1&#10;sequential_access=false&#10;size=32768&#10;system=board&#10;tag_latency=1&#10;tags=board.cache_hierarchy.l1icaches.tags&#10;tgts_per_mshr=20&#10;warmup_percentage=0&#10;write_allocator=Null&#10;write_buffers=8&#10;writeback_clean=true">
<path fill="#9f9c95" stroke="#000000" d="M556,-40C556,-40 731,-40 731,-40 737,-40 743,-46 743,-52 743,-52 743,-118 743,-118 743,-124 737,-130 731,-130 731,-130 556,-130 556,-130 550,-130 544,-124 544,-118 544,-118 544,-52 544,-52 544,-46 550,-40 556,-40"/>
<text text-anchor="middle" x="643.5" y="-114.8" font-family="Arial" font-size="14.00" fill="#000000">l1icaches </text>
<text text-anchor="middle" x="643.5" y="-99.8" font-family="Arial" font-size="14.00" fill="#000000">: L1ICache</text>
</a>
</g>
</g>
<g id="clust168" class="cluster">
<title>cluster_board_cache_hierarchy_l1dcaches</title>
<g id="a_clust168"><a xlink:title="addr_ranges=0:18446744073709551615&#10;assoc=8&#10;clk_domain=board.clk_domain&#10;clusivity=mostly_incl&#10;compressor=Null&#10;data_latency=1&#10;demand_mshr_reserve=1&#10;eventq_index=0&#10;is_read_only=false&#10;max_miss_count=0&#10;move_contractions=true&#10;mshrs=16&#10;partitioning_manager=Null&#10;power_model=&#10;power_state=board.cache_hierarchy.l1dcaches.power_state&#10;prefetcher=board.cache_hierarchy.l1dcaches.prefetcher&#10;&#13;eplace_expansions=true&#10;&#13;eplacement_policy=board.cache_hierarchy.l1dcaches.replacement_policy&#10;&#13;esponse_latency=1&#10;sequential_access=false&#10;size=32768&#10;system=board&#10;tag_latency=1&#10;tags=board.cache_hierarchy.l1dcaches.tags&#10;tgts_per_mshr=20&#10;warmup_percentage=0&#10;write_allocator=Null&#10;write_buffers=8&#10;writeback_clean=false">
<path fill="#9f9c95" stroke="#000000" d="M763,-40C763,-40 938,-40 938,-40 944,-40 950,-46 950,-52 950,-52 950,-118 950,-118 950,-124 944,-130 938,-130 938,-130 763,-130 763,-130 757,-130 751,-124 751,-118 751,-118 751,-52 751,-52 751,-46 757,-40 763,-40"/>
<text text-anchor="middle" x="850.5" y="-114.8" font-family="Arial" font-size="14.00" fill="#000000">l1dcaches </text>
<text text-anchor="middle" x="850.5" y="-99.8" font-family="Arial" font-size="14.00" fill="#000000">: L1DCache</text>
</a>
</g>
</g>
<!-- board_system_port -->
<g id="node1" class="node">
<title>board_system_port</title>
<path fill="#b6b8bc" stroke="#000000" d="M114,-398C114,-398 36,-398 36,-398 30,-398 24,-392 24,-386 24,-386 24,-374 24,-374 24,-368 30,-362 36,-362 36,-362 114,-362 114,-362 120,-362 126,-368 126,-374 126,-374 126,-386 126,-386 126,-392 120,-398 114,-398"/>
<text text-anchor="middle" x="75" y="-376.3" font-family="Arial" font-size="14.00" fill="#000000">system_port</text>
</g>
<!-- board_cache_hierarchy_membus_cpu_side_ports -->
<g id="node7" class="node">
<title>board_cache_hierarchy_membus_cpu_side_ports</title>
<path fill="#586070" stroke="#000000" d="M516,-214C516,-214 420,-214 420,-214 414,-214 408,-208 408,-202 408,-202 408,-190 408,-190 408,-184 414,-178 420,-178 420,-178 516,-178 516,-178 522,-178 528,-184 528,-190 528,-190 528,-202 528,-202 528,-208 522,-214 516,-214"/>
<text text-anchor="middle" x="468" y="-192.3" font-family="Arial" font-size="14.00" fill="#000000">cpu_side_ports</text>
</g>
<!-- board_system_port&#45;&gt;board_cache_hierarchy_membus_cpu_side_ports -->
<g id="edge1" class="edge">
<title>board_system_port&#45;&gt;board_cache_hierarchy_membus_cpu_side_ports</title>
<path fill="none" stroke="black" d="M98.2,-361.77C120.82,-346.05 156.87,-323.83 192,-314 214.17,-307.8 379.05,-317.49 399,-306 430.01,-288.14 449.19,-250.11 459.23,-224.05"/>
<polygon fill="black" stroke="black" points="462.62,-224.97 462.75,-214.38 456.04,-222.58 462.62,-224.97"/>
</g>
<!-- board_processor_cores_core_icache_port -->
<g id="node2" class="node">
<title>board_processor_cores_core_icache_port</title>
<path fill="#959ead" stroke="#000000" d="M822,-398C822,-398 750,-398 750,-398 744,-398 738,-392 738,-386 738,-386 738,-374 738,-374 738,-368 744,-362 750,-362 750,-362 822,-362 822,-362 828,-362 834,-368 834,-374 834,-374 834,-386 834,-386 834,-392 828,-398 822,-398"/>
<text text-anchor="middle" x="786" y="-376.3" font-family="Arial" font-size="14.00" fill="#000000">icache_port</text>
</g>
<!-- board_cache_hierarchy_l1icaches_cpu_side -->
<g id="node11" class="node">
<title>board_cache_hierarchy_l1icaches_cpu_side</title>
<path fill="#7f7c77" stroke="#000000" d="M722.5,-84C722.5,-84 669.5,-84 669.5,-84 663.5,-84 657.5,-78 657.5,-72 657.5,-72 657.5,-60 657.5,-60 657.5,-54 663.5,-48 669.5,-48 669.5,-48 722.5,-48 722.5,-48 728.5,-48 734.5,-54 734.5,-60 734.5,-60 734.5,-72 734.5,-72 734.5,-78 728.5,-84 722.5,-84"/>
<text text-anchor="middle" x="696" y="-62.3" font-family="Arial" font-size="14.00" fill="#000000">cpu_side</text>
</g>
<!-- board_processor_cores_core_icache_port&#45;&gt;board_cache_hierarchy_l1icaches_cpu_side -->
<g id="edge2" class="edge">
<title>board_processor_cores_core_icache_port&#45;&gt;board_cache_hierarchy_l1icaches_cpu_side</title>
<path fill="none" stroke="black" d="M781.03,-361.78C766.16,-310.22 721.89,-156.74 703.81,-94.09"/>
<polygon fill="black" stroke="black" points="707.09,-92.8 700.95,-84.17 700.36,-94.74 707.09,-92.8"/>
</g>
<!-- board_processor_cores_core_dcache_port -->
<g id="node3" class="node">
<title>board_processor_cores_core_dcache_port</title>
<path fill="#959ead" stroke="#000000" d="M941.5,-398C941.5,-398 864.5,-398 864.5,-398 858.5,-398 852.5,-392 852.5,-386 852.5,-386 852.5,-374 852.5,-374 852.5,-368 858.5,-362 864.5,-362 864.5,-362 941.5,-362 941.5,-362 947.5,-362 953.5,-368 953.5,-374 953.5,-374 953.5,-386 953.5,-386 953.5,-392 947.5,-398 941.5,-398"/>
<text text-anchor="middle" x="903" y="-376.3" font-family="Arial" font-size="14.00" fill="#000000">dcache_port</text>
</g>
<!-- board_cache_hierarchy_l1dcaches_cpu_side -->
<g id="node13" class="node">
<title>board_cache_hierarchy_l1dcaches_cpu_side</title>
<path fill="#7f7c77" stroke="#000000" d="M929.5,-84C929.5,-84 876.5,-84 876.5,-84 870.5,-84 864.5,-78 864.5,-72 864.5,-72 864.5,-60 864.5,-60 864.5,-54 870.5,-48 876.5,-48 876.5,-48 929.5,-48 929.5,-48 935.5,-48 941.5,-54 941.5,-60 941.5,-60 941.5,-72 941.5,-72 941.5,-78 935.5,-84 929.5,-84"/>
<text text-anchor="middle" x="903" y="-62.3" font-family="Arial" font-size="14.00" fill="#000000">cpu_side</text>
</g>
<!-- board_processor_cores_core_dcache_port&#45;&gt;board_cache_hierarchy_l1dcaches_cpu_side -->
<g id="edge3" class="edge">
<title>board_processor_cores_core_dcache_port&#45;&gt;board_cache_hierarchy_l1dcaches_cpu_side</title>
<path fill="none" stroke="black" d="M903,-361.78C903,-310.32 903,-157.37 903,-94.48"/>
<polygon fill="black" stroke="black" points="906.5,-94.17 903,-84.17 899.5,-94.17 906.5,-94.17"/>
</g>
<!-- board_processor_cores_core_mmu_itb_walker_port -->
<g id="node4" class="node">
<title>board_processor_cores_core_mmu_itb_walker_port</title>
<path fill="#6a6863" stroke="#000000" d="M588,-398C588,-398 558,-398 558,-398 552,-398 546,-392 546,-386 546,-386 546,-374 546,-374 546,-368 552,-362 558,-362 558,-362 588,-362 588,-362 594,-362 600,-368 600,-374 600,-374 600,-386 600,-386 600,-392 594,-398 588,-398"/>
<text text-anchor="middle" x="573" y="-376.3" font-family="Arial" font-size="14.00" fill="#000000">port</text>
</g>
<!-- board_processor_cores_core_mmu_itb_walker_port&#45;&gt;board_cache_hierarchy_membus_cpu_side_ports -->
<g id="edge4" class="edge">
<title>board_processor_cores_core_mmu_itb_walker_port&#45;&gt;board_cache_hierarchy_membus_cpu_side_ports</title>
<path fill="none" stroke="black" d="M563.12,-361.88C544.67,-329.9 504.88,-260.93 483.06,-223.11"/>
<polygon fill="black" stroke="black" points="485.96,-221.12 477.93,-214.21 479.89,-224.62 485.96,-221.12"/>
</g>
<!-- board_processor_cores_core_mmu_dtb_walker_port -->
<g id="node5" class="node">
<title>board_processor_cores_core_mmu_dtb_walker_port</title>
<path fill="#6a6863" stroke="#000000" d="M483,-398C483,-398 453,-398 453,-398 447,-398 441,-392 441,-386 441,-386 441,-374 441,-374 441,-368 447,-362 453,-362 453,-362 483,-362 483,-362 489,-362 495,-368 495,-374 495,-374 495,-386 495,-386 495,-392 489,-398 483,-398"/>
<text text-anchor="middle" x="468" y="-376.3" font-family="Arial" font-size="14.00" fill="#000000">port</text>
</g>
<!-- board_processor_cores_core_mmu_dtb_walker_port&#45;&gt;board_cache_hierarchy_membus_cpu_side_ports -->
<g id="edge5" class="edge">
<title>board_processor_cores_core_mmu_dtb_walker_port&#45;&gt;board_cache_hierarchy_membus_cpu_side_ports</title>
<path fill="none" stroke="black" d="M468,-361.88C468,-330.31 468,-262.67 468,-224.57"/>
<polygon fill="black" stroke="black" points="471.5,-224.21 468,-214.21 464.5,-224.21 471.5,-224.21"/>
</g>
<!-- board_memory_mem_ctrl_port -->
<g id="node6" class="node">
<title>board_memory_mem_ctrl_port</title>
<path fill="#7f7c77" stroke="#000000" d="M262,-398C262,-398 232,-398 232,-398 226,-398 220,-392 220,-386 220,-386 220,-374 220,-374 220,-368 226,-362 232,-362 232,-362 262,-362 262,-362 268,-362 274,-368 274,-374 274,-374 274,-386 274,-386 274,-392 268,-398 262,-398"/>
<text text-anchor="middle" x="247" y="-376.3" font-family="Arial" font-size="14.00" fill="#000000">port</text>
</g>
<!-- board_cache_hierarchy_membus_mem_side_ports -->
<g id="node8" class="node">
<title>board_cache_hierarchy_membus_mem_side_ports</title>
<path fill="#586070" stroke="#000000" d="M378,-214C378,-214 272,-214 272,-214 266,-214 260,-208 260,-202 260,-202 260,-190 260,-190 260,-184 266,-178 272,-178 272,-178 378,-178 378,-178 384,-178 390,-184 390,-190 390,-190 390,-202 390,-202 390,-208 384,-214 378,-214"/>
<text text-anchor="middle" x="325" y="-192.3" font-family="Arial" font-size="14.00" fill="#000000">mem_side_ports</text>
</g>
<!-- board_memory_mem_ctrl_port&#45;&gt;board_cache_hierarchy_membus_mem_side_ports -->
<g id="edge6" class="edge">
<title>board_memory_mem_ctrl_port&#45;&gt;board_cache_hierarchy_membus_mem_side_ports</title>
<path fill="none" stroke="black" d="M258.35,-352.51C274.58,-314.65 303.95,-246.12 317.62,-214.21"/>
<polygon fill="black" stroke="black" points="255.06,-351.31 254.34,-361.88 261.49,-354.07 255.06,-351.31"/>
</g>
<!-- board_cache_hierarchy_l1icaches_mem_side -->
<g id="node12" class="node">
<title>board_cache_hierarchy_l1icaches_mem_side</title>
<path fill="#7f7c77" stroke="#000000" d="M627.5,-84C627.5,-84 564.5,-84 564.5,-84 558.5,-84 552.5,-78 552.5,-72 552.5,-72 552.5,-60 552.5,-60 552.5,-54 558.5,-48 564.5,-48 564.5,-48 627.5,-48 627.5,-48 633.5,-48 639.5,-54 639.5,-60 639.5,-60 639.5,-72 639.5,-72 639.5,-78 633.5,-84 627.5,-84"/>
<text text-anchor="middle" x="596" y="-62.3" font-family="Arial" font-size="14.00" fill="#000000">mem_side</text>
</g>
<!-- board_cache_hierarchy_membus_cpu_side_ports&#45;&gt;board_cache_hierarchy_l1icaches_mem_side -->
<g id="edge7" class="edge">
<title>board_cache_hierarchy_membus_cpu_side_ports&#45;&gt;board_cache_hierarchy_l1icaches_mem_side</title>
<path fill="none" stroke="black" d="M492.63,-170.37C517.84,-145.16 556.4,-106.6 578.6,-84.4"/>
<polygon fill="black" stroke="black" points="489.86,-168.19 485.26,-177.74 494.81,-173.14 489.86,-168.19"/>
</g>
<!-- board_cache_hierarchy_l1dcaches_mem_side -->
<g id="node14" class="node">
<title>board_cache_hierarchy_l1dcaches_mem_side</title>
<path fill="#7f7c77" stroke="#000000" d="M834.5,-84C834.5,-84 771.5,-84 771.5,-84 765.5,-84 759.5,-78 759.5,-72 759.5,-72 759.5,-60 759.5,-60 759.5,-54 765.5,-48 771.5,-48 771.5,-48 834.5,-48 834.5,-48 840.5,-48 846.5,-54 846.5,-60 846.5,-60 846.5,-72 846.5,-72 846.5,-78 840.5,-84 834.5,-84"/>
<text text-anchor="middle" x="803" y="-62.3" font-family="Arial" font-size="14.00" fill="#000000">mem_side</text>
</g>
<!-- board_cache_hierarchy_membus_cpu_side_ports&#45;&gt;board_cache_hierarchy_l1dcaches_mem_side -->
<g id="edge8" class="edge">
<title>board_cache_hierarchy_membus_cpu_side_ports&#45;&gt;board_cache_hierarchy_l1dcaches_mem_side</title>
<path fill="none" stroke="black" d="M538.27,-190.48C597.5,-184.01 682.65,-168.27 747,-130 766.12,-118.63 782.28,-98.55 792.25,-84.12"/>
<polygon fill="black" stroke="black" points="537.85,-187 528.26,-191.51 538.57,-193.97 537.85,-187"/>
</g>
<!-- board_cache_hierarchy_membus_default -->
<g id="node9" class="node">
<title>board_cache_hierarchy_membus_default</title>
<path fill="#586070" stroke="#000000" d="M229.5,-214C229.5,-214 188.5,-214 188.5,-214 182.5,-214 176.5,-208 176.5,-202 176.5,-202 176.5,-190 176.5,-190 176.5,-184 182.5,-178 188.5,-178 188.5,-178 229.5,-178 229.5,-178 235.5,-178 241.5,-184 241.5,-190 241.5,-190 241.5,-202 241.5,-202 241.5,-208 235.5,-214 229.5,-214"/>
<text text-anchor="middle" x="209" y="-192.3" font-family="Arial" font-size="14.00" fill="#000000">default</text>
</g>
<!-- board_cache_hierarchy_membus_badaddr_responder_pio -->
<g id="node10" class="node">
<title>board_cache_hierarchy_membus_badaddr_responder_pio</title>
<path fill="#9f8575" stroke="#000000" d="M226,-84C226,-84 196,-84 196,-84 190,-84 184,-78 184,-72 184,-72 184,-60 184,-60 184,-54 190,-48 196,-48 196,-48 226,-48 226,-48 232,-48 238,-54 238,-60 238,-60 238,-72 238,-72 238,-78 232,-84 226,-84"/>
<text text-anchor="middle" x="211" y="-62.3" font-family="Arial" font-size="14.00" fill="#000000">pio</text>
</g>
<!-- board_cache_hierarchy_membus_default&#45;&gt;board_cache_hierarchy_membus_badaddr_responder_pio -->
<g id="edge9" class="edge">
<title>board_cache_hierarchy_membus_default&#45;&gt;board_cache_hierarchy_membus_badaddr_responder_pio</title>
<path fill="none" stroke="black" d="M209.27,-177.74C209.6,-156.36 210.18,-119.69 210.57,-94.44"/>
<polygon fill="black" stroke="black" points="214.07,-94.45 210.73,-84.4 207.07,-94.34 214.07,-94.45"/>
</g>
</g>
</svg>
